<svg xmlns="http://www.w3.org/2000/svg" id="_&#x421;&#x43B;&#x43E;&#x439;_1" data-name="&#x421;&#x43B;&#x43E;&#x439; 1" viewBox="0 0 653 493"><defs><style>      .cls-1 {        stroke-width: 0px;      }    </style></defs><path class="cls-1" d="m270,217.67h0c31.46,0,60.35-45.03,66.36-83.16l2.61-1.62c5.08-3.17,9.64-6.25,13.74-9.2-6.61,23.07-10.93,42.95-13.39,59.54.06,1.48.07,2.6.18,3.33,1.09,7.09,5.58,12.68,9.59,12.01,1.93-.32,3.63-2.1,4.98-5.12l1.12-5.59c5.15-12.6,9.91-24.38,15.98-35.27,2.96,6.4,6.73,11.53,12.38,19.36,2.89,3.81,5.86,7.04,8.75,9.73,5.9,5.17,14.37,8.79,22.73,7.4,11.07-1.85,19.67-8.78,27.61-20.71,1.81,5.15,5.38,8.72,8.63,8.18,1.93-.32,3.63-2.1,4.98-5.12l1.12-5.59c5.15-12.6,9.91-24.38,15.98-35.27,2.96,6.4,5.73,11.53,11.38,19.36,2.89,3.81,6.86,7.04,9.75,9.73,5.9,5.17,14.37,8.79,22.73,7.4,12.96-2.16,22.54-11.3,31.65-27.28,3.57,11.29,11.61,17.58,21.92,15.86,6.56-1.09,19.16-8.3,27.33-18.36,1.8-2.22,3.48-4.52,5.09-6.87,8.16-10.43,14.34-22.23,18.77-35.45,4.63-13.82,6.77-26.67,6.56-38.76.09-2.62-.17-5.38-.59-8.11-2.24-14.54-10.39-22.51-20.83-20.76-9.48,1.58-20.54,9.04-27.53,18.22-2.24,2.8-4.19,5.43-5.89,7.86-5.92,7.7-9.57,13.92-11.71,18.5-2.14,4.27-6.58,14.18-9.58,21.18l.18.15c-2.53,6.63-4.24,13.44-5.12,20.42-9.56,17.61-19.35,27.35-29.73,29.08-5.14.86-11.05-1.14-17.89-5.97-6.87-5.01-12.3-12.49-16.47-22.42,16.17-24.51,35.61-43.79,58.31-58.01.42-1.56.49-3.25.24-4.88-.9-5.82-5.88-10.39-13.18-10.67-6.43,1.07-15.52,8.37-27.28,21.89-11.63,13.31-23.26,29.79-34.61,49.21l-.03-.18c.98-2.27,7.51-18.86,18.06-44.4,4.3-8.71,12.5-25.54,12.66-25.57,2.72-5.88,5.49-11.83,8.32-17.87,1.48-3.23,2-6.3,1.55-9.21-1.12-7.27-8.09-11.89-14.52-10.82-1.29.21-2.51.79-3.88,1.58l-20.02,52.52s-.03,0-.05.01c-.23.65-.46,1.29-.69,1.94l-.95,2.5s.06-.02.09-.04c-9.6,27.65-16.42,51.85-20.97,72.49-.31.16-.62.33-.95.52-9.62,17.83-18.47,27.67-28.92,29.41-5.14.86-12.05-1.14-18.89-5.97-6.87-5.01-12.3-12.49-16.47-22.42,16.17-24.51,35.61-43.79,58.31-58.01.42-1.56.49-3.25.24-4.88-.9-5.82-5.88-10.39-13.18-10.67-6.43,1.07-15.52,8.37-27.28,21.89-11.63,13.31-23.26,29.79-34.61,49.21l-.03-.18c1.18-2.73,10.33-26.04,24.83-60.68,4.25-8.42,13.01-25.59,14.21-28.15,1.48-3.23,2-6.3,1.55-9.21-1.12-7.27-8.09-11.89-14.52-10.82-1.29.21-2.51.79-3.88,1.58-4.55,10.08-17.95,45.99-22.5,60.47-1.48,4.3-2.89,8.52-4.23,12.64-6.12,4.25-13.6,9.24-22.82,15.14-1.27-13.4-7.11-23.66-20.61-23.66-28.85,0-68.59,63.15-68.59,98.8,0,17.28,9.22,27.82,21.92,27.84Zm296.3-110.83l.13-.23c7-27,11.86-32.16,15.86-39.35.47-.82.96-1.6,1.45-2.36,4.57-5.4,9.37-8.48,13.7-9.2,6.11-1.02,9.8,2.65,11.06,10.83.14.91.2,2.39.35,4.42,0,7.46-1.53,15.73-4.56,25-2.43,7.23-5.69,13.88-9.76,19.97-5.51,6.56-11.98,10.4-17.68,11.35-4.98.83-9.62-3.62-10.74-10.89-.2-1.27-.36-2.36-.32-3.12.04-1.87.22-3.95.5-6.42Zm-253.64,6.25l-.03-.04c3.98,0,5.63,5.65,5.63,11.47,0,23.84-28.47,73.51-43.72,73.51-3.64,0-5.43-4.37-5.43-9.82,0-30.38,31.39-75.13,43.55-75.13Z"></path><path class="cls-1" d="m537.52,226.97c-16.21,0-32.98,15.78-47.3,40.72.31-2.96.48-5.93.48-8.68,0-11.27-8.35-19.29-17.96-19.29-22.49,0-51.5,27.56-82.37,104.39-15.63,11.86-36.77,19.11-46.57,18.86-7.38-.19-13.45-4.79-14.96-12.89,39.06-10.31,76.87-45.02,77.52-70.67.3-11.81-8.2-20.95-20.52-21.27-34.82-.88-75.47,49.39-76.51,90.34-.56,22.18,13.1,34.72,29.04,35.13,14.36.36,29.52-6.14,45.53-18.11.3.39.7.74,1.22,1.08l11.78,7.27c2.16,1.45,3.81.72,4.71-1.66,21.95-62.21,51.7-111,65.67-111,3.81,0,5.43,3.27,5.43,8.2,0,16.19-21.05,58.05-29.92,77.13l-1.1,2.38c-.89,2-.55,3.44,1.44,4.93l10.34,7.48c1.99,1.45,3.81.72,4.91-1.45,31.57-67.52,58.22-112.82,71.31-112.82,3.98,0,5.09,3.1,5.09,7.27,0,16.57-25.93,66.42-34.11,81.5l-1.1,2c-1.1,2-.72,3.65,1.1,4.93l10.16,7.08c1.82,1.28,3.26.72,4.71-.72l14.39-30.07c17.24-32.21,25.55-56.56,25.55-71.65,0-11.09-7.45-20.39-17.96-20.39Zm-157.76,49.52c4.34.12,6.08,3.09,5.98,7.25-.3,11.68-28.26,41.29-56.25,53.12,5.98-28.78,36.7-60.69,50.28-60.37Z"></path><path class="cls-1" d="m638.95,284.13c-2.51,3.59-5.11,5.57-9.01,8.64-.02-.12-.04-.24-.05-.36-15.8,13.3-28.01,18.42-38.46,18.16-7.38-.19-13.45-4.79-14.96-12.89,39.06-10.31,76.87-45.02,77.52-70.67.3-11.81-8.2-20.95-20.52-21.27-34.82-.88-75.47,49.39-76.51,90.34,0,.25.03,4.68.03,4.92,1,14,18.03,29.92,29,30.2,15.41.39,31.75-7.12,49.07-20.84-.09-.19-.18-.4-.27-.59.1.17.21.34.32.5l17.49-13.69-10.53-12.58c-.83-1.02-2.36-.96-3.13.14Zm-11.55-60.04c4.34.12,6.08,3.09,5.98,7.25-.3,11.68-28.26,41.29-56.25,53.12,5.98-28.78,36.7-60.69,50.28-60.37Z"></path><path class="cls-1" d="m284,281c-10.82,0-24.58,11.92-35,24l18.78-44.37,268.11-56.96h.03c.86-.2,1.48-.48,1.88-.82l80.87-17.18h.03c3.09-.72,3.09-2.38.72-4.55l-11.23-10.92c-.89-.72-2.16-1.45-3.44-1.28l-251.54,53.42c.02.14.02.28.04.41l-77.24,16.24,1.65-.55c.89-2.15.17-4.1-1.44-5.47l-9.62-7.44c-1.99-1.55-3.98-.96-4.91,1.37l-1.44,3.51-5.24,13.58-24.85,4.9,3.54-8.13c.89-2,.17-3.82-1.44-5.1l-9.62-6.93c-1.99-1.45-3.98-.9-4.91,1.28l-1.44,3.27-9.55,20.57L5.43,296.65c-1.1.17-1.99.9-2.37,2l-4.54,13.09c-.38,1.28-.38,2.17,0,3.44,8.73,29.66,55.71,64.59,84.53,64.59,21.4,0,37.92-6.55,58.05-49.67.89-2,.55-3.65-1.65-5.27l-10.34-7.99c-1.82-1.45-3.09-.9-4.16,1.1-20.68,40.41-31.02,41.13-39.74,41.13-16.28,0-52.86-23.53-64.3-45.95l175.59-37.31-90.23,194.42c-.89,1.83-.55,3.65,1.1,5.1l14.32,12.92c1.99,1.83,3.81,1.45,4.91-1.1l94.05-216.51,25.33-4.64-44.15,96.7-13.85,29.3c-.86,1.84-4.09,8.2-2.42,9.62l14.51,12.71c2.02,1.8,3.83,1.39,4.9-1.17l6.21-14.88c30.8-80.28,53.15-98.45,65.56-98.45,3.98,0,5.09,3.1,5.09,7.27,0,16.57-25.93,66.42-34.11,81.5l-1.1,2c-1.1,2-.72,3.65,1.1,4.93l10.16,7.08c1.82,1.28,3.26.72,4.71-.72.6-.67,1.17-1.45,2.02-2.48-.32.36-.63.7-.9.98,17.24-32.21,36.27-81.29,36.27-96.38,0-11.09-5.49-23-16-23Z"></path><path class="cls-1" d="m8.23,186.59c.81.1,1.62.18,2.44.14l17.67-1.01c7.76-16.48,11.99-29.44,21.97-45.34,12.88-20.18,25.66-30.52,34.92-30.52,4.91,0,7.08,3.82,7.08,8.92,0,7.79-1.6,17.35-7.89,36.49-.51,1.01-1.01,2.02-1.52,3.05-.05.09-.09.19-.14.28-6.73,13.66-13.5,29.13-20.32,46.45-.03,0-.06.01-.1.02-4.88,13.1-9.62,26.77-14.18,40.93-.39.89-.4,2.17.53,2.72l15.31,10.48c1.81,1.29,3.43,1.3,4.37-1.41,5.74-18.7,12.05-36.99,18.65-54.39,25.02-59,51.57-101,66.08-101,4.91,0,7.08,3.82,7.08,8.92,0,15.09-9.96,49.51-39.02,111.55-.72,1.45-1.65,3.44-2.37,5.27-.55,1.45-.17,2.72,1.1,3.27l16.15,7.65c1.44.72,3.26.17,3.81-1.1l13.98-30.21c26.31-56.94,61.52-123.02,80.54-123.02,3.81,0,6.7,2.55,6.7,7.65,0,19.63-25.93,70.79-37.37,94.08l-17.8,36.21c-.89,1.66-.38,3.44,1.1,4.17l14.15,6.55c1.1.55,2.54.55,3.81-1.28,1.18-1.69,2.11-3.08,3.35-4.73.02-.02.05-.05,0,0l27.71-58.21c21.95-40.2,27.75-67.86,27.75-81.71,0-16.36-9.07-25.46-22.67-25.46-22.15,0-45.2,28.15-62.03,59.81,1.48-5.82,2.71-11.4,2.71-15.95,0-16.74-8.17-25.66-23.39-25.66s-29.51,9.21-44.74,27.96c-1.4-13.4-8.55-20.51-22.12-20.51-17.26,0-33.79,11.54-50.39,34.48l-8.88,13.18c-.46.74-.92,1.48-1.38,2.24.03,0,.05.02.08.03-8.51,14.96-17.65,31.61-25.96,48.64-.41.67,1.9.2,3.23.36Z"></path></svg>